<svg xmlns="http://www.w3.org/2000/svg" width="1920" height="500"><path d="M-275,-237L-61,-225L168,-227Z" fill="#eef8ea" stroke="#eef8ea" stroke-width="1.51"/><path d="M168,-227L734,-175L898,-181Z" fill="#caeac5" stroke="#caeac5" stroke-width="1.51"/><path d="M1015,712L500,739L1122,731Z" fill="#44894d" stroke="#44894d" stroke-width="1.51"/><path d="M168,-227L898,-181L1270,-197Z" fill="#bfe5ba" stroke="#bfe5ba" stroke-width="1.51"/><path d="M-275,-237L168,-227L1517,-213Z" fill="#d4eecf" stroke="#d4eecf" stroke-width="1.51"/><path d="M168,-227L1270,-197L1517,-213Z" fill="#b2deb0" stroke="#b2deb0" stroke-width="1.51"/><path d="M1609,-176L1868,-113L1936,-121Z" fill="#83b587" stroke="#83b587" stroke-width="1.51"/><path d="M1517,-213L1609,-176L1936,-121Z" fill="#8abc8f" stroke="#8abc8f" stroke-width="1.51"/><path d="M1581,704L1122,731L1952,696Z" fill="#157134" stroke="#157134" stroke-width="1.51"/><path d="M2113,447L2038,469L2179,621Z" fill="#116e33" stroke="#116e33" stroke-width="1.51"/><path d="M2039,3L2088,155L2180,-46Z" fill="#649a67" stroke="#649a67" stroke-width="1.51"/><path d="M2113,447L2179,621L2180,-46Z" fill="#2b7e40" stroke="#2b7e40" stroke-width="1.51"/><path d="M2094,294L2113,447L2180,-46Z" fill="#428a4c" stroke="#428a4c" stroke-width="1.51"/><path d="M2088,155L2094,294L2180,-46Z" fill="#54925a" stroke="#54925a" stroke-width="1.51"/><path d="M1517,-213L1936,-121L2202,-114Z" fill="#81b284" stroke="#81b284" stroke-width="1.51"/><path d="M2039,3L2180,-46L2202,-114Z" fill="#6e9c71" stroke="#6e9c71" stroke-width="1.51"/><path d="M1936,-121L2039,3L2202,-114Z" fill="#74a376" stroke="#74a376" stroke-width="1.51"/><path d="M2180,-46L2179,621L2202,-114Z" fill="#4f8c54" stroke="#4f8c54" stroke-width="1.51"/><path d="M2038,469L1952,696L2179,621Z" fill="#05682b" stroke="#05682b" stroke-width="1.51"/><path d="M2039,3L1987,175L2088,155Z" fill="#5a9a5f" stroke="#5a9a5f" stroke-width="1.51"/><path d="M2088,155L1987,175L2094,294Z" fill="#489151" stroke="#489151" stroke-width="1.51"/><path d="M1987,175L2009,306L2094,294Z" fill="#3f8f4c" stroke="#3f8f4c" stroke-width="1.51"/><path d="M2094,294L2009,306L2113,447Z" fill="#2b8442" stroke="#2b8442" stroke-width="1.51"/><path d="M2009,306L2038,469L2113,447Z" fill="#207e3d" stroke="#207e3d" stroke-width="1.51"/><path d="M1755,635L1581,704L1952,696Z" fill="#096c2f" stroke="#096c2f" stroke-width="1.51"/><path d="M1762,313L1801,528L2009,306Z" fill="#288e46" stroke="#288e46" stroke-width="1.51"/><path d="M2009,306L1801,528L2038,469Z" fill="#1e833e" stroke="#1e833e" stroke-width="1.51"/><path d="M1801,528L1952,696L2038,469Z" fill="#0b7432" stroke="#0b7432" stroke-width="1.51"/><path d="M1871,16L1987,175L2039,3Z" fill="#63a168" stroke="#63a168" stroke-width="1.51"/><path d="M1936,-121L1871,16L2039,3Z" fill="#72a975" stroke="#72a975" stroke-width="1.51"/><path d="M1871,16L1857,172L1987,175Z" fill="#5ca262" stroke="#5ca262" stroke-width="1.51"/><path d="M1987,175L1857,172L2009,306Z" fill="#499753" stroke="#499753" stroke-width="1.51"/><path d="M1857,172L1762,313L2009,306Z" fill="#429850" stroke="#429850" stroke-width="1.51"/><path d="M1868,-113L1871,16L1936,-121Z" fill="#79ae7c" stroke="#79ae7c" stroke-width="1.51"/><path d="M1801,528L1755,635L1952,696Z" fill="#077230" stroke="#077230" stroke-width="1.51"/><path d="M1609,-176L1673,-49L1868,-113Z" fill="#84b989" stroke="#84b989" stroke-width="1.51"/><path d="M1650,166L1857,172L1871,16Z" fill="#60a867" stroke="#60a867" stroke-width="1.51"/><path d="M1673,-49L1650,166L1871,16Z" fill="#6eb074" stroke="#6eb074" stroke-width="1.51"/><path d="M1868,-113L1673,-49L1871,16Z" fill="#79b17d" stroke="#79b17d" stroke-width="1.51"/><path d="M1762,313L1629,461L1801,528Z" fill="#268d46" stroke="#268d46" stroke-width="1.51"/><path d="M1650,166L1762,313L1857,172Z" fill="#50a25b" stroke="#50a25b" stroke-width="1.51"/><path d="M1650,166L1697,316L1762,313Z" fill="#47a157" stroke="#47a157" stroke-width="1.51"/><path d="M1697,316L1629,461L1762,313Z" fill="#32984e" stroke="#32984e" stroke-width="1.51"/><path d="M1629,461L1755,635L1801,528Z" fill="#19803c" stroke="#19803c" stroke-width="1.51"/><path d="M1629,461L1581,704L1755,635Z" fill="#157d39" stroke="#157d39" stroke-width="1.51"/><path d="M1506,-60L1650,166L1673,-49Z" fill="#77b87d" stroke="#77b87d" stroke-width="1.51"/><path d="M1650,166L1456,356L1697,316Z" fill="#49a45a" stroke="#49a45a" stroke-width="1.51"/><path d="M1456,356L1629,461L1697,316Z" fill="#339b51" stroke="#339b51" stroke-width="1.51"/><path d="M1326,618L1122,731L1581,704Z" fill="#207f3e" stroke="#207f3e" stroke-width="1.51"/><path d="M1438,617L1581,704L1629,461Z" fill="#1c833e" stroke="#1c833e" stroke-width="1.51"/><path d="M1430,215L1456,356L1650,166Z" fill="#53ac61" stroke="#53ac61" stroke-width="1.51"/><path d="M1609,-176L1506,-60L1673,-49Z" fill="#86be8c" stroke="#86be8c" stroke-width="1.51"/><path d="M1430,456L1438,617L1629,461Z" fill="#288f48" stroke="#288f48" stroke-width="1.51"/><path d="M1506,-60L1430,215L1650,166Z" fill="#6cb674" stroke="#6cb674" stroke-width="1.51"/><path d="M1438,617L1326,618L1581,704Z" fill="#1d813d" stroke="#1d813d" stroke-width="1.51"/><path d="M1456,356L1430,456L1629,461Z" fill="#319950" stroke="#319950" stroke-width="1.51"/><path d="M1517,-213L1506,-60L1609,-176Z" fill="#8ec393" stroke="#8ec393" stroke-width="1.51"/><path d="M1337,163L1430,215L1506,-60Z" fill="#71bb78" stroke="#71bb78" stroke-width="1.51"/><path d="M168,-227L296,-186L734,-175Z" fill="#d6efd0" stroke="#d6efd0" stroke-width="1.51"/><path d="M1288,-44L1337,163L1506,-60Z" fill="#80c486" stroke="#80c486" stroke-width="1.51"/><path d="M1270,-197L1288,-44L1506,-60Z" fill="#91cb96" stroke="#91cb96" stroke-width="1.51"/><path d="M1270,-197L1506,-60L1517,-213Z" fill="#93c998" stroke="#93c998" stroke-width="1.51"/><path d="M1283,560L1326,618L1430,456Z" fill="#2b934a" stroke="#2b934a" stroke-width="1.51"/><path d="M1430,456L1326,618L1438,617Z" fill="#278e46" stroke="#278e46" stroke-width="1.51"/><path d="M1331,354L1430,456L1456,356Z" fill="#3ba357" stroke="#3ba357" stroke-width="1.51"/><path d="M1430,215L1331,354L1456,356Z" fill="#4bab5e" stroke="#4bab5e" stroke-width="1.51"/><path d="M1337,163L1331,354L1430,215Z" fill="#59b367" stroke="#59b367" stroke-width="1.51"/><path d="M1331,354L1283,560L1430,456Z" fill="#359d53" stroke="#359d53" stroke-width="1.51"/><path d="M676,673L500,739L1015,712Z" fill="#509157" stroke="#509157" stroke-width="1.51"/><path d="M898,-181L1070,-122L1270,-197Z" fill="#a8d9a8" stroke="#a8d9a8" stroke-width="1.51"/><path d="M1150,538L1283,560L1331,354Z" fill="#379e54" stroke="#379e54" stroke-width="1.51"/><path d="M1126,195L1066,288L1331,354Z" fill="#5eb86a" stroke="#5eb86a" stroke-width="1.51"/><path d="M1288,-44L1150,1L1337,163Z" fill="#83c888" stroke="#83c888" stroke-width="1.51"/><path d="M1150,1L1126,195L1337,163Z" fill="#7ac57f" stroke="#7ac57f" stroke-width="1.51"/><path d="M1126,195L1331,354L1337,163Z" fill="#60b96c" stroke="#60b96c" stroke-width="1.51"/><path d="M1283,560L1122,731L1326,618Z" fill="#298c45" stroke="#298c45" stroke-width="1.51"/><path d="M1066,288L1150,538L1331,354Z" fill="#48ad5f" stroke="#48ad5f" stroke-width="1.51"/><path d="M1070,-122L1150,1L1270,-197Z" fill="#9dd49e" stroke="#9dd49e" stroke-width="1.51"/><path d="M1150,538L1122,731L1283,560Z" fill="#319149" stroke="#319149" stroke-width="1.51"/><path d="M1270,-197L1150,1L1288,-44Z" fill="#95cf98" stroke="#95cf98" stroke-width="1.51"/><path d="M296,-186L579,-149L734,-175Z" fill="#ccebc6" stroke="#ccebc6" stroke-width="1.51"/><path d="M1012,561L1015,712L1122,731Z" fill="#3a8e4a" stroke="#3a8e4a" stroke-width="1.51"/><path d="M1070,-122L917,56L1150,1Z" fill="#9bd499" stroke="#9bd499" stroke-width="1.51"/><path d="M926,131L1126,195L1150,1Z" fill="#85cc86" stroke="#85cc86" stroke-width="1.51"/><path d="M917,56L926,131L1150,1Z" fill="#91d18f" stroke="#91d18f" stroke-width="1.51"/><path d="M1066,288L997,360L1150,538Z" fill="#51b063" stroke="#51b063" stroke-width="1.51"/><path d="M997,360L1012,561L1150,538Z" fill="#49a65b" stroke="#49a65b" stroke-width="1.51"/><path d="M1012,561L1122,731L1150,538Z" fill="#3a954d" stroke="#3a954d" stroke-width="1.51"/><path d="M926,131L1066,288L1126,195Z" fill="#76c579" stroke="#76c579" stroke-width="1.51"/><path d="M926,131L997,360L1066,288Z" fill="#6fc173" stroke="#6fc173" stroke-width="1.51"/><path d="M898,-181L917,56L1070,-122Z" fill="#a8daa4" stroke="#a8daa4" stroke-width="1.51"/><path d="M898,-181L804,-32L917,56Z" fill="#aadca6" stroke="#aadca6" stroke-width="1.51"/><path d="M926,131L768,203L997,360Z" fill="#7cc87c" stroke="#7cc87c" stroke-width="1.51"/><path d="M997,360L784,398L1012,561Z" fill="#58b065" stroke="#58b065" stroke-width="1.51"/><path d="M784,398L754,538L1012,561Z" fill="#58ab64" stroke="#58ab64" stroke-width="1.51"/><path d="M1012,561L754,622L1015,712Z" fill="#469952" stroke="#469952" stroke-width="1.51"/><path d="M754,622L676,673L1015,712Z" fill="#4c9655" stroke="#4c9655" stroke-width="1.51"/><path d="M768,203L784,398L997,360Z" fill="#6fc175" stroke="#6fc175" stroke-width="1.51"/><path d="M754,538L754,622L1012,561Z" fill="#52a35c" stroke="#52a35c" stroke-width="1.51"/><path d="M917,56L768,203L926,131Z" fill="#90d18c" stroke="#90d18c" stroke-width="1.51"/><path d="M804,-32L768,203L917,56Z" fill="#9bd697" stroke="#9bd697" stroke-width="1.51"/><path d="M734,-175L804,-32L898,-181Z" fill="#b7e2b2" stroke="#b7e2b2" stroke-width="1.51"/><path d="M668,6L661,228L768,203Z" fill="#99d594" stroke="#99d594" stroke-width="1.51"/><path d="M768,203L661,228L784,398Z" fill="#7fc980" stroke="#7fc980" stroke-width="1.51"/><path d="M668,6L768,203L804,-32Z" fill="#a3da9e" stroke="#a3da9e" stroke-width="1.51"/><path d="M734,-175L668,6L804,-32Z" fill="#b5e1af" stroke="#b5e1af" stroke-width="1.51"/><path d="M602,523L754,538L784,398Z" fill="#64b26d" stroke="#64b26d" stroke-width="1.51"/><path d="M588,377L602,523L784,398Z" fill="#6dba75" stroke="#6dba75" stroke-width="1.51"/><path d="M661,228L588,377L784,398Z" fill="#79c57e" stroke="#79c57e" stroke-width="1.51"/><path d="M579,-149L668,6L734,-175Z" fill="#bfe6b9" stroke="#bfe6b9" stroke-width="1.51"/><path d="M602,523L676,673L754,622Z" fill="#5ba462" stroke="#5ba462" stroke-width="1.51"/><path d="M602,523L754,622L754,538Z" fill="#5da966" stroke="#5da966" stroke-width="1.51"/><path d="M296,-186L455,-126L579,-149Z" fill="#d1edca" stroke="#d1edca" stroke-width="1.51"/><path d="M505,309L588,377L661,228Z" fill="#85cb86" stroke="#85cb86" stroke-width="1.51"/><path d="M579,-149L495,-62L668,6Z" fill="#bfe6b9" stroke="#bfe6b9" stroke-width="1.51"/><path d="M475,130L661,228L668,6Z" fill="#a4da9d" stroke="#a4da9d" stroke-width="1.51"/><path d="M602,523L500,739L676,673Z" fill="#5ea163" stroke="#5ea163" stroke-width="1.51"/><path d="M495,-62L475,130L668,6Z" fill="#b5e2ae" stroke="#b5e2ae" stroke-width="1.51"/><path d="M475,130L505,309L661,228Z" fill="#95d492" stroke="#95d492" stroke-width="1.51"/><path d="M588,377L460,530L602,523Z" fill="#70b877" stroke="#70b877" stroke-width="1.51"/><path d="M460,530L500,739L602,523Z" fill="#67a96c" stroke="#67a96c" stroke-width="1.51"/><path d="M149,685L-231,671L247,728Z" fill="#77a47a" stroke="#77a47a" stroke-width="1.51"/><path d="M505,309L460,530L588,377Z" fill="#79c280" stroke="#79c280" stroke-width="1.51"/><path d="M455,-126L495,-62L579,-149Z" fill="#c9eac2" stroke="#c9eac2" stroke-width="1.51"/><path d="M232,33L475,130L495,-62Z" fill="#bde5b6" stroke="#bde5b6" stroke-width="1.51"/><path d="M460,530L247,728L500,739Z" fill="#68a26c" stroke="#68a26c" stroke-width="1.51"/><path d="M475,130L284,163L505,309Z" fill="#a1d89c" stroke="#a1d89c" stroke-width="1.51"/><path d="M284,163L329,367L505,309Z" fill="#96d395" stroke="#96d395" stroke-width="1.51"/><path d="M329,367L460,530L505,309Z" fill="#7fc585" stroke="#7fc585" stroke-width="1.51"/><path d="M455,-126L232,33L495,-62Z" fill="#c9e9c2" stroke="#c9e9c2" stroke-width="1.51"/><path d="M232,33L284,163L475,130Z" fill="#b6e2af" stroke="#b6e2af" stroke-width="1.51"/><path d="M218,558L247,728L460,530Z" fill="#72ad76" stroke="#72ad76" stroke-width="1.51"/><path d="M296,-186L232,33L455,-126Z" fill="#d1edca" stroke="#d1edca" stroke-width="1.51"/><path d="M329,367L218,558L460,530Z" fill="#7cbc82" stroke="#7cbc82" stroke-width="1.51"/><path d="M168,-227L232,33L296,-186Z" fill="#daf0d4" stroke="#daf0d4" stroke-width="1.51"/><path d="M161,210L80,309L329,367Z" fill="#9dd59c" stroke="#9dd59c" stroke-width="1.51"/><path d="M80,309L97,466L329,367Z" fill="#90cd94" stroke="#90cd94" stroke-width="1.51"/><path d="M97,466L218,558L329,367Z" fill="#84c18a" stroke="#84c18a" stroke-width="1.51"/><path d="M284,163L161,210L329,367Z" fill="#a2d89e" stroke="#a2d89e" stroke-width="1.51"/><path d="M218,558L149,685L247,728Z" fill="#73a777" stroke="#73a777" stroke-width="1.51"/><path d="M232,33L161,210L284,163Z" fill="#b7e2b0" stroke="#b7e2b0" stroke-width="1.51"/><path d="M168,-227L51,47L232,33Z" fill="#d4efce" stroke="#d4efce" stroke-width="1.51"/><path d="M51,47L161,210L232,33Z" fill="#c0e6b9" stroke="#c0e6b9" stroke-width="1.51"/><path d="M3,612L-231,671L149,685Z" fill="#7eac81" stroke="#7eac81" stroke-width="1.51"/><path d="M3,612L149,685L218,558Z" fill="#7aaf7e" stroke="#7aaf7e" stroke-width="1.51"/><path d="M97,466L3,612L218,558Z" fill="#82b887" stroke="#82b887" stroke-width="1.51"/><path d="M-3,36L51,47L168,-227Z" fill="#d8f0d2" stroke="#d8f0d2" stroke-width="1.51"/><path d="M-61,-225L-3,36L168,-227Z" fill="#e4f5df" stroke="#e4f5df" stroke-width="1.51"/><path d="M-79,224L80,309L161,210Z" fill="#acdca8" stroke="#acdca8" stroke-width="1.51"/><path d="M51,47L-79,224L161,210Z" fill="#bbe3b6" stroke="#bbe3b6" stroke-width="1.51"/><path d="M-3,36L-79,224L51,47Z" fill="#c7e9c1" stroke="#c7e9c1" stroke-width="1.51"/><path d="M-102,555L3,612L97,466Z" fill="#87bb8b" stroke="#87bb8b" stroke-width="1.51"/><path d="M-83,370L-102,555L97,466Z" fill="#90c695" stroke="#90c695" stroke-width="1.51"/><path d="M80,309L-83,370L97,466Z" fill="#96cf9b" stroke="#96cf9b" stroke-width="1.51"/><path d="M-79,224L-83,370L80,309Z" fill="#a6d8a6" stroke="#a6d8a6" stroke-width="1.51"/><path d="M-61,-225L-223,-1L-3,36Z" fill="#e0f3db" stroke="#e0f3db" stroke-width="1.51"/><path d="M-214,115L-79,224L-3,36Z" fill="#c6e8c0" stroke="#c6e8c0" stroke-width="1.51"/><path d="M-102,555L-231,671L3,612Z" fill="#84b487" stroke="#84b487" stroke-width="1.51"/><path d="M-223,-1L-214,115L-3,36Z" fill="#d3edcd" stroke="#d3edcd" stroke-width="1.51"/><path d="M-247,473L-102,555L-83,370Z" fill="#93c799" stroke="#93c799" stroke-width="1.51"/><path d="M-243,365L-83,370L-79,224Z" fill="#a6d7a7" stroke="#a6d7a7" stroke-width="1.51"/><path d="M-275,-237L-223,-1L-61,-225Z" fill="#ecf8e8" stroke="#ecf8e8" stroke-width="1.51"/><path d="M-243,365L-247,473L-83,370Z" fill="#9bcfa1" stroke="#9bcfa1" stroke-width="1.51"/><path d="M-214,115L-243,365L-79,224Z" fill="#b6e0b2" stroke="#b6e0b2" stroke-width="1.51"/><path d="M-247,473L-231,671L-102,555Z" fill="#8aba8f" stroke="#8aba8f" stroke-width="1.51"/><path d="M-223,-1L-243,365L-214,115Z" fill="#c4e7bf" stroke="#c4e7bf" stroke-width="1.51"/><path d="M-275,-237L-243,365L-223,-1Z" fill="#d6efd1" stroke="#d6efd1" stroke-width="1.51"/><path d="M-275,-237L-247,473L-243,365Z" fill="#bee4ba" stroke="#bee4ba" stroke-width="1.51"/></svg>