<svg xmlns="http://www.w3.org/2000/svg" width="1920" height="1080"><path d="M-359,-267L-114,-261L280,-303Z" fill="#f1faba" stroke="#f1faba" stroke-width="1.51"/><path d="M-359,-267L280,-303L1156,-384Z" fill="#d8efc0" stroke="#d8efc0" stroke-width="1.51"/><path d="M1156,-384L1506,-368L1746,-366Z" fill="#a1b8c5" stroke="#a1b8c5" stroke-width="1.51"/><path d="M1513,1325L1330,1362L1880,1381Z" fill="#204892" stroke="#204892" stroke-width="1.51"/><path d="M1330,1362L976,1453L1880,1381Z" fill="#205392" stroke="#205392" stroke-width="1.51"/><path d="M1746,-366L1966,-250L2158,-287Z" fill="#9b93b1" stroke="#9b93b1" stroke-width="1.51"/><path d="M1880,1381L976,1453L2163,1389Z" fill="#1c3e88" stroke="#1c3e88" stroke-width="1.51"/><path d="M1925,1364L1880,1381L2163,1389Z" fill="#1d2d82" stroke="#1d2d82" stroke-width="1.51"/><path d="M2163,189L2141,372L2178,544Z" fill="#4d7499" stroke="#4d7499" stroke-width="1.51"/><path d="M2158,-287L2050,-66L2227,-20Z" fill="#8a8897" stroke="#8a8897" stroke-width="1.51"/><path d="M2163,189L2178,544L2227,-20Z" fill="#5e7895" stroke="#5e7895" stroke-width="1.51"/><path d="M2075,923L2173,1016L2232,779Z" fill="#214e93" stroke="#214e93" stroke-width="1.51"/><path d="M2073,831L2075,923L2232,779Z" fill="#245599" stroke="#245599" stroke-width="1.51"/><path d="M2178,544L2055,546L2232,779Z" fill="#30669c" stroke="#30669c" stroke-width="1.51"/><path d="M2055,546L2073,831L2232,779Z" fill="#2a619e" stroke="#2a619e" stroke-width="1.51"/><path d="M2227,-20L2178,544L2232,779Z" fill="#426e95" stroke="#426e95" stroke-width="1.51"/><path d="M2173,1016L1998,1254L2262,1239Z" fill="#1f3589" stroke="#1f3589" stroke-width="1.51"/><path d="M1998,1254L2163,1389L2262,1239Z" fill="#1c2c80" stroke="#1c2c80" stroke-width="1.51"/><path d="M2232,779L2173,1016L2262,1239Z" fill="#1b4088" stroke="#1b4088" stroke-width="1.51"/><path d="M2227,-20L2232,779L2262,1239Z" fill="#296093" stroke="#296093" stroke-width="1.51"/><path d="M1156,-384L1346,-358L1506,-368Z" fill="#a2c3ca" stroke="#a2c3ca" stroke-width="1.51"/><path d="M2050,-66L2163,189L2227,-20Z" fill="#7d8498" stroke="#7d8498" stroke-width="1.51"/><path d="M2081,352L2141,372L2163,189Z" fill="#56789b" stroke="#56789b" stroke-width="1.51"/><path d="M2081,352L2055,546L2141,372Z" fill="#4a74a0" stroke="#4a74a0" stroke-width="1.51"/><path d="M1966,-250L2050,-66L2158,-287Z" fill="#948da1" stroke="#948da1" stroke-width="1.51"/><path d="M2050,-66L1957,203L2163,189Z" fill="#7984a0" stroke="#7984a0" stroke-width="1.51"/><path d="M2075,923L1875,1111L2173,1016Z" fill="#234799" stroke="#234799" stroke-width="1.51"/><path d="M1875,1111L1998,1254L2173,1016Z" fill="#243e96" stroke="#243e96" stroke-width="1.51"/><path d="M2141,372L2055,546L2178,544Z" fill="#40709f" stroke="#40709f" stroke-width="1.51"/><path d="M1957,203L2081,352L2163,189Z" fill="#637da0" stroke="#637da0" stroke-width="1.51"/><path d="M1998,1254L1925,1364L2163,1389Z" fill="#1d2e84" stroke="#1d2e84" stroke-width="1.51"/><path d="M1815,108L1957,203L2050,-66Z" fill="#828ba8" stroke="#828ba8" stroke-width="1.51"/><path d="M1815,-50L1815,108L2050,-66Z" fill="#8a91a9" stroke="#8a91a9" stroke-width="1.51"/><path d="M1824,458L1721,815L2055,546Z" fill="#3876af" stroke="#3876af" stroke-width="1.51"/><path d="M2055,546L1721,815L2073,831Z" fill="#2f67ac" stroke="#2f67ac" stroke-width="1.51"/><path d="M1721,815L1809,910L2073,831Z" fill="#2961aa" stroke="#2961aa" stroke-width="1.51"/><path d="M2073,831L1809,910L2075,923Z" fill="#2a57a5" stroke="#2a57a5" stroke-width="1.51"/><path d="M1809,910L1875,1111L2075,923Z" fill="#2751a2" stroke="#2751a2" stroke-width="1.51"/><path d="M1824,458L2055,546L2081,352Z" fill="#4b77ab" stroke="#4b77ab" stroke-width="1.51"/><path d="M1957,203L1824,458L2081,352Z" fill="#5a7eaa" stroke="#5a7eaa" stroke-width="1.51"/><path d="M1814,248L1824,458L1957,203Z" fill="#5d85ac" stroke="#5d85ac" stroke-width="1.51"/><path d="M1966,-250L1815,-50L2050,-66Z" fill="#9491a7" stroke="#9491a7" stroke-width="1.51"/><path d="M1875,1111L1925,1364L1998,1254Z" fill="#263895" stroke="#263895" stroke-width="1.51"/><path d="M1875,1111L1880,1381L1925,1364Z" fill="#243791" stroke="#243791" stroke-width="1.51"/><path d="M1746,-366L1815,-50L1966,-250Z" fill="#999bae" stroke="#999bae" stroke-width="1.51"/><path d="M1815,108L1814,248L1957,203Z" fill="#718bab" stroke="#718bab" stroke-width="1.51"/><path d="M1569,614L1721,815L1824,458Z" fill="#337eb4" stroke="#337eb4" stroke-width="1.51"/><path d="M1875,1111L1638,1195L1880,1381Z" fill="#26429b" stroke="#26429b" stroke-width="1.51"/><path d="M1746,-366L1588,-171L1815,-50Z" fill="#99a2b0" stroke="#99a2b0" stroke-width="1.51"/><path d="M1814,248L1661,374L1824,458Z" fill="#5589b0" stroke="#5589b0" stroke-width="1.51"/><path d="M1809,910L1649,944L1875,1111Z" fill="#2558a5" stroke="#2558a5" stroke-width="1.51"/><path d="M1638,1195L1513,1325L1880,1381Z" fill="#234496" stroke="#234496" stroke-width="1.51"/><path d="M1569,614L1573,713L1721,815Z" fill="#297eb6" stroke="#297eb6" stroke-width="1.51"/><path d="M1649,944L1638,1195L1875,1111Z" fill="#2553a2" stroke="#2553a2" stroke-width="1.51"/><path d="M280,-303L932,-301L1156,-384Z" fill="#b5dfc6" stroke="#b5dfc6" stroke-width="1.51"/><path d="M1196,1367L976,1453L1330,1362Z" fill="#296097" stroke="#296097" stroke-width="1.51"/><path d="M1588,-171L1521,177L1815,-50Z" fill="#8ba2b0" stroke="#8ba2b0" stroke-width="1.51"/><path d="M1815,-50L1521,177L1815,108Z" fill="#829bae" stroke="#829bae" stroke-width="1.51"/><path d="M1521,177L1814,248L1815,108Z" fill="#7296af" stroke="#7296af" stroke-width="1.51"/><path d="M1661,374L1569,614L1824,458Z" fill="#4389b4" stroke="#4389b4" stroke-width="1.51"/><path d="M1521,177L1661,374L1814,248Z" fill="#6294b2" stroke="#6294b2" stroke-width="1.51"/><path d="M1721,815L1649,944L1809,910Z" fill="#2666ac" stroke="#2666ac" stroke-width="1.51"/><path d="M1506,-368L1588,-171L1746,-366Z" fill="#9cabbb" stroke="#9cabbb" stroke-width="1.51"/><path d="M1573,713L1649,944L1721,815Z" fill="#2472b2" stroke="#2472b2" stroke-width="1.51"/><path d="M1396,146L1521,177L1588,-171Z" fill="#87acb5" stroke="#87acb5" stroke-width="1.51"/><path d="M1364,-163L1396,146L1588,-171Z" fill="#92b4b6" stroke="#92b4b6" stroke-width="1.51"/><path d="M1573,713L1346,912L1649,944Z" fill="#2377b4" stroke="#2377b4" stroke-width="1.51"/><path d="M1456,1200L1638,1195L1649,944Z" fill="#2659a6" stroke="#2659a6" stroke-width="1.51"/><path d="M1346,912L1456,1200L1649,944Z" fill="#2369ad" stroke="#2369ad" stroke-width="1.51"/><path d="M1310,405L1569,614L1661,374Z" fill="#4496b9" stroke="#4496b9" stroke-width="1.51"/><path d="M1521,177L1310,405L1661,374Z" fill="#599eb8" stroke="#599eb8" stroke-width="1.51"/><path d="M1456,1200L1513,1325L1638,1195Z" fill="#2852a3" stroke="#2852a3" stroke-width="1.51"/><path d="M1310,405L1329,605L1569,614Z" fill="#359cbf" stroke="#359cbf" stroke-width="1.51"/><path d="M1319,833L1346,912L1573,713Z" fill="#2184ba" stroke="#2184ba" stroke-width="1.51"/><path d="M1506,-368L1364,-163L1588,-171Z" fill="#9cb5ba" stroke="#9cb5ba" stroke-width="1.51"/><path d="M1396,146L1310,405L1521,177Z" fill="#67a9b9" stroke="#67a9b9" stroke-width="1.51"/><path d="M1569,614L1329,605L1573,713Z" fill="#2e8dbb" stroke="#2e8dbb" stroke-width="1.51"/><path d="M1329,605L1319,833L1573,713Z" fill="#268dbd" stroke="#268dbd" stroke-width="1.51"/><path d="M587,1354L196,1416L976,1453Z" fill="#567593" stroke="#567593" stroke-width="1.51"/><path d="M1346,-358L1364,-163L1506,-368Z" fill="#9fbcc2" stroke="#9fbcc2" stroke-width="1.51"/><path d="M280,-303L574,-242L932,-301Z" fill="#c0e5c0" stroke="#c0e5c0" stroke-width="1.51"/><path d="M1456,1200L1330,1362L1513,1325Z" fill="#27569f" stroke="#27569f" stroke-width="1.51"/><path d="M1346,912L1241,1216L1456,1200Z" fill="#286baf" stroke="#286baf" stroke-width="1.51"/><path d="M1216,296L1310,405L1396,146Z" fill="#5fafbe" stroke="#5fafbe" stroke-width="1.51"/><path d="M1364,-163L1184,129L1396,146Z" fill="#8abcbb" stroke="#8abcbb" stroke-width="1.51"/><path d="M1241,1216L1330,1362L1456,1200Z" fill="#2b5fa7" stroke="#2b5fa7" stroke-width="1.51"/><path d="M1253,608L1319,833L1329,605Z" fill="#2798c1" stroke="#2798c1" stroke-width="1.51"/><path d="M1144,893L1241,1216L1346,912Z" fill="#277bb5" stroke="#277bb5" stroke-width="1.51"/><path d="M1103,-141L1184,129L1364,-163Z" fill="#95c4bb" stroke="#95c4bb" stroke-width="1.51"/><path d="M1184,129L1216,296L1396,146Z" fill="#73b7bd" stroke="#73b7bd" stroke-width="1.51"/><path d="M574,-242L772,-252L932,-301Z" fill="#b4dfc0" stroke="#b4dfc0" stroke-width="1.51"/><path d="M1253,608L1131,800L1319,833Z" fill="#2696c1" stroke="#2696c1" stroke-width="1.51"/><path d="M1310,405L1253,608L1329,605Z" fill="#33a3c2" stroke="#33a3c2" stroke-width="1.51"/><path d="M1346,-358L1156,-384L1364,-163Z" fill="#a1c5c5" stroke="#a1c5c5" stroke-width="1.51"/><path d="M1156,-384L1103,-141L1364,-163Z" fill="#a1c9bf" stroke="#a1c9bf" stroke-width="1.51"/><path d="M1241,1216L1196,1367L1330,1362Z" fill="#2a60a2" stroke="#2a60a2" stroke-width="1.51"/><path d="M1319,833L1144,893L1346,912Z" fill="#2387bb" stroke="#2387bb" stroke-width="1.51"/><path d="M1144,893L985,1026L1241,1216Z" fill="#307db4" stroke="#307db4" stroke-width="1.51"/><path d="M1025,545L1253,608L1310,405Z" fill="#3caac2" stroke="#3caac2" stroke-width="1.51"/><path d="M1131,800L1144,893L1319,833Z" fill="#278fbd" stroke="#278fbd" stroke-width="1.51"/><path d="M1216,296L1025,545L1310,405Z" fill="#4eb0c0" stroke="#4eb0c0" stroke-width="1.51"/><path d="M985,1026L994,1219L1241,1216Z" fill="#3777b0" stroke="#3777b0" stroke-width="1.51"/><path d="M1025,545L1131,800L1253,608Z" fill="#33a3c2" stroke="#33a3c2" stroke-width="1.51"/><path d="M1103,-141L972,87L1184,129Z" fill="#91c9bc" stroke="#91c9bc" stroke-width="1.51"/><path d="M994,1219L1196,1367L1241,1216Z" fill="#3469a9" stroke="#3469a9" stroke-width="1.51"/><path d="M892,379L1025,545L1216,296Z" fill="#54b8c1" stroke="#54b8c1" stroke-width="1.51"/><path d="M1184,129L972,87L1216,296Z" fill="#7ac0bd" stroke="#7ac0bd" stroke-width="1.51"/><path d="M972,87L892,379L1216,296Z" fill="#6dc1bf" stroke="#6dc1bf" stroke-width="1.51"/><path d="M1025,545L981,795L1131,800Z" fill="#33a4c2" stroke="#33a4c2" stroke-width="1.51"/><path d="M932,-301L1103,-141L1156,-384Z" fill="#a6d2c4" stroke="#a6d2c4" stroke-width="1.51"/><path d="M994,1219L976,1453L1196,1367Z" fill="#33699f" stroke="#33699f" stroke-width="1.51"/><path d="M932,-301L998,-145L1103,-141Z" fill="#a5d4be" stroke="#a5d4be" stroke-width="1.51"/><path d="M704,1350L587,1354L976,1453Z" fill="#497198" stroke="#497198" stroke-width="1.51"/><path d="M998,-145L972,87L1103,-141Z" fill="#9bcfbc" stroke="#9bcfbc" stroke-width="1.51"/><path d="M1131,800L981,795L1144,893Z" fill="#2e96bf" stroke="#2e96bf" stroke-width="1.51"/><path d="M981,795L985,1026L1144,893Z" fill="#3291bb" stroke="#3291bb" stroke-width="1.51"/><path d="M316,1368L196,1416L587,1354Z" fill="#707f95" stroke="#707f95" stroke-width="1.51"/><path d="M807,1173L704,1350L976,1453Z" fill="#4673a1" stroke="#4673a1" stroke-width="1.51"/><path d="M981,795L798,975L985,1026Z" fill="#3b93ba" stroke="#3b93ba" stroke-width="1.51"/><path d="M985,1026L807,1173L994,1219Z" fill="#407fb0" stroke="#407fb0" stroke-width="1.51"/><path d="M807,1173L976,1453L994,1219Z" fill="#4073a7" stroke="#4073a7" stroke-width="1.51"/><path d="M818,-126L972,87L998,-145Z" fill="#9ed4bb" stroke="#9ed4bb" stroke-width="1.51"/><path d="M892,379L791,565L1025,545Z" fill="#50bac2" stroke="#50bac2" stroke-width="1.51"/><path d="M821,698L981,795L1025,545Z" fill="#3babc3" stroke="#3babc3" stroke-width="1.51"/><path d="M791,565L821,698L1025,545Z" fill="#48b3c3" stroke="#48b3c3" stroke-width="1.51"/><path d="M668,99L892,379L972,87Z" fill="#83ccbd" stroke="#83ccbd" stroke-width="1.51"/><path d="M932,-301L818,-126L998,-145Z" fill="#a9d9bd" stroke="#a9d9bd" stroke-width="1.51"/><path d="M821,698L798,975L981,795Z" fill="#41a1bf" stroke="#41a1bf" stroke-width="1.51"/><path d="M798,975L807,1173L985,1026Z" fill="#4588b4" stroke="#4588b4" stroke-width="1.51"/><path d="M818,-126L668,99L972,87Z" fill="#9dd5ba" stroke="#9dd5ba" stroke-width="1.51"/><path d="M772,-252L818,-126L932,-301Z" fill="#afdcbf" stroke="#afdcbf" stroke-width="1.51"/><path d="M668,99L694,408L892,379Z" fill="#77c9bd" stroke="#77c9bd" stroke-width="1.51"/><path d="M596,754L798,975L821,698Z" fill="#4fa7be" stroke="#4fa7be" stroke-width="1.51"/><path d="M694,408L791,565L892,379Z" fill="#61c0c1" stroke="#61c0c1" stroke-width="1.51"/><path d="M668,99L547,285L694,408Z" fill="#85cfbb" stroke="#85cfbb" stroke-width="1.51"/><path d="M596,754L557,998L798,975Z" fill="#589eb8" stroke="#589eb8" stroke-width="1.51"/><path d="M798,975L557,998L807,1173Z" fill="#538db2" stroke="#538db2" stroke-width="1.51"/><path d="M557,998L511,1113L807,1173Z" fill="#5b8caf" stroke="#5b8caf" stroke-width="1.51"/><path d="M574,-242L668,99L818,-126Z" fill="#afddb8" stroke="#afddb8" stroke-width="1.51"/><path d="M791,565L591,572L821,698Z" fill="#57b8c1" stroke="#57b8c1" stroke-width="1.51"/><path d="M591,572L596,754L821,698Z" fill="#5bb5bf" stroke="#5bb5bf" stroke-width="1.51"/><path d="M772,-252L574,-242L818,-126Z" fill="#b5dfbb" stroke="#b5dfbb" stroke-width="1.51"/><path d="M574,-242L479,-156L668,99Z" fill="#b8e2b6" stroke="#b8e2b6" stroke-width="1.51"/><path d="M511,1113L704,1350L807,1173Z" fill="#5980ab" stroke="#5980ab" stroke-width="1.51"/><path d="M511,1113L587,1354L704,1350Z" fill="#5e7da6" stroke="#5e7da6" stroke-width="1.51"/><path d="M694,408L591,572L791,565Z" fill="#61c0c0" stroke="#61c0c0" stroke-width="1.51"/><path d="M479,-156L578,115L668,99Z" fill="#aedeb7" stroke="#aedeb7" stroke-width="1.51"/><path d="M578,115L547,285L668,99Z" fill="#98d6b9" stroke="#98d6b9" stroke-width="1.51"/><path d="M547,285L591,572L694,408Z" fill="#73c7be" stroke="#73c7be" stroke-width="1.51"/><path d="M479,-156L413,70L578,115Z" fill="#b7e2b6" stroke="#b7e2b6" stroke-width="1.51"/><path d="M257,743L277,1034L557,998Z" fill="#7ba7b5" stroke="#7ba7b5" stroke-width="1.51"/><path d="M413,70L547,285L578,115Z" fill="#a3dab8" stroke="#a3dab8" stroke-width="1.51"/><path d="M511,1113L316,1368L587,1354Z" fill="#6c81a4" stroke="#6c81a4" stroke-width="1.51"/><path d="M547,285L346,389L591,572Z" fill="#82ccbc" stroke="#82ccbc" stroke-width="1.51"/><path d="M346,389L338,592L591,572Z" fill="#81cabd" stroke="#81cabd" stroke-width="1.51"/><path d="M257,743L557,998L596,754Z" fill="#70aeba" stroke="#70aeba" stroke-width="1.51"/><path d="M591,572L338,592L596,754Z" fill="#70bebe" stroke="#70bebe" stroke-width="1.51"/><path d="M338,592L257,743L596,754Z" fill="#7cbdbd" stroke="#7cbdbd" stroke-width="1.51"/><path d="M270,1252L316,1368L511,1113Z" fill="#7a87a7" stroke="#7a87a7" stroke-width="1.51"/><path d="M346,-70L413,70L479,-156Z" fill="#c4e7b5" stroke="#c4e7b5" stroke-width="1.51"/><path d="M280,-303L479,-156L574,-242Z" fill="#cdeaba" stroke="#cdeaba" stroke-width="1.51"/><path d="M277,1034L511,1113L557,998Z" fill="#7197b0" stroke="#7197b0" stroke-width="1.51"/><path d="M413,70L346,389L547,285Z" fill="#9dd8b8" stroke="#9dd8b8" stroke-width="1.51"/><path d="M277,1034L270,1252L511,1113Z" fill="#7c92ac" stroke="#7c92ac" stroke-width="1.51"/><path d="M280,-303L346,-70L479,-156Z" fill="#d2edb4" stroke="#d2edb4" stroke-width="1.51"/><path d="M257,743L155,918L277,1034Z" fill="#88aeb6" stroke="#88aeb6" stroke-width="1.51"/><path d="M280,-303L204,-222L346,-70Z" fill="#dbf1b5" stroke="#dbf1b5" stroke-width="1.51"/><path d="M160,45L151,398L346,389Z" fill="#addeb7" stroke="#addeb7" stroke-width="1.51"/><path d="M160,45L346,389L413,70Z" fill="#b6e2b6" stroke="#b6e2b6" stroke-width="1.51"/><path d="M346,-70L160,45L413,70Z" fill="#c9eab4" stroke="#c9eab4" stroke-width="1.51"/><path d="M204,-222L102,-30L346,-70Z" fill="#d9f0b3" stroke="#d9f0b3" stroke-width="1.51"/><path d="M102,-30L160,45L346,-70Z" fill="#d3edb3" stroke="#d3edb3" stroke-width="1.51"/><path d="M167,531L338,592L346,389Z" fill="#92d0bc" stroke="#92d0bc" stroke-width="1.51"/><path d="M151,398L167,531L346,389Z" fill="#9cd5ba" stroke="#9cd5ba" stroke-width="1.51"/><path d="M90,1150L270,1252L277,1034Z" fill="#8795ab" stroke="#8795ab" stroke-width="1.51"/><path d="M167,531L257,743L338,592Z" fill="#8ec9bc" stroke="#8ec9bc" stroke-width="1.51"/><path d="M-17,250L151,398L160,45Z" fill="#bae3b6" stroke="#bae3b6" stroke-width="1.51"/><path d="M-17,180L-17,250L160,45Z" fill="#c8e8b5" stroke="#c8e8b5" stroke-width="1.51"/><path d="M270,1252L196,1416L316,1368Z" fill="#7d849a" stroke="#7d849a" stroke-width="1.51"/><path d="M167,531L107,739L257,743Z" fill="#91c6bc" stroke="#91c6bc" stroke-width="1.51"/><path d="M107,739L155,918L257,743Z" fill="#8ebbba" stroke="#8ebbba" stroke-width="1.51"/><path d="M-114,-261L204,-222L280,-303Z" fill="#e6f6ba" stroke="#e6f6ba" stroke-width="1.51"/><path d="M155,918L90,1150L277,1034Z" fill="#8aa0af" stroke="#8aa0af" stroke-width="1.51"/><path d="M90,1150L196,1416L270,1252Z" fill="#878aa3" stroke="#878aa3" stroke-width="1.51"/><path d="M90,1150L-138,1372L196,1416Z" fill="#8b8a9d" stroke="#8b8a9d" stroke-width="1.51"/><path d="M-114,-261L102,-30L204,-222Z" fill="#e6f5b2" stroke="#e6f5b2" stroke-width="1.51"/><path d="M-114,-261L-126,-123L102,-30Z" fill="#eaf7b1" stroke="#eaf7b1" stroke-width="1.51"/><path d="M107,739L-89,941L155,918Z" fill="#94b6b7" stroke="#94b6b7" stroke-width="1.51"/><path d="M-89,941L90,1150L155,918Z" fill="#91a6b0" stroke="#91a6b0" stroke-width="1.51"/><path d="M151,398L-14,469L167,531Z" fill="#a2d7bb" stroke="#a2d7bb" stroke-width="1.51"/><path d="M-14,469L107,739L167,531Z" fill="#9ad0bb" stroke="#9ad0bb" stroke-width="1.51"/><path d="M102,-30L-17,180L160,45Z" fill="#d2edb3" stroke="#d2edb3" stroke-width="1.51"/><path d="M-17,250L-14,469L151,398Z" fill="#aedcb9" stroke="#aedcb9" stroke-width="1.51"/><path d="M-89,941L-153,1096L90,1150Z" fill="#98a1ad" stroke="#98a1ad" stroke-width="1.51"/><path d="M-153,1096L-138,1372L90,1150Z" fill="#9794a8" stroke="#9794a8" stroke-width="1.51"/><path d="M-126,-123L-17,180L102,-30Z" fill="#ddf1b2" stroke="#ddf1b2" stroke-width="1.51"/><path d="M-14,469L-149,787L107,739Z" fill="#9ecbbb" stroke="#9ecbbb" stroke-width="1.51"/><path d="M-149,787L-89,941L107,739Z" fill="#9bbdb8" stroke="#9bbdb8" stroke-width="1.51"/><path d="M-126,-123L-224,42L-17,180Z" fill="#dff2b6" stroke="#dff2b6" stroke-width="1.51"/><path d="M-317,248L-17,250L-17,180Z" fill="#c6e7b8" stroke="#c6e7b8" stroke-width="1.51"/><path d="M-353,618L-149,787L-14,469Z" fill="#a5d1c2" stroke="#a5d1c2" stroke-width="1.51"/><path d="M-17,250L-317,248L-14,469Z" fill="#b9e2ba" stroke="#b9e2ba" stroke-width="1.51"/><path d="M-317,248L-353,618L-14,469Z" fill="#b2ddc2" stroke="#b2ddc2" stroke-width="1.51"/><path d="M-224,42L-317,248L-17,180Z" fill="#d2edbb" stroke="#d2edbb" stroke-width="1.51"/><path d="M-153,1096L-368,1153L-138,1372Z" fill="#9a96b0" stroke="#9a96b0" stroke-width="1.51"/><path d="M-368,1153L-385,1311L-138,1372Z" fill="#9890ae" stroke="#9890ae" stroke-width="1.51"/><path d="M-251,-95L-224,42L-126,-123Z" fill="#e8f6b9" stroke="#e8f6b9" stroke-width="1.51"/><path d="M-149,787L-323,1018L-89,941Z" fill="#9db4bb" stroke="#9db4bb" stroke-width="1.51"/><path d="M-323,1018L-153,1096L-89,941Z" fill="#9ba8b6" stroke="#9ba8b6" stroke-width="1.51"/><path d="M-355,823L-323,1018L-149,787Z" fill="#9fb9c2" stroke="#9fb9c2" stroke-width="1.51"/><path d="M-251,-95L-126,-123L-114,-261Z" fill="#eff9b7" stroke="#eff9b7" stroke-width="1.51"/><path d="M-359,-267L-251,-95L-114,-261Z" fill="#f4fbbf" stroke="#f4fbbf" stroke-width="1.51"/><path d="M-353,618L-355,823L-149,787Z" fill="#a3c8c7" stroke="#a3c8c7" stroke-width="1.51"/><path d="M-323,1018L-368,1153L-153,1096Z" fill="#9ca2b9" stroke="#9ca2b9" stroke-width="1.51"/><path d="M-251,-95L-317,248L-224,42Z" fill="#e0f3be" stroke="#e0f3be" stroke-width="1.51"/><path d="M-359,-267L-317,248L-251,-95Z" fill="#e9f7c0" stroke="#e9f7c0" stroke-width="1.51"/><path d="M-359,-267L-353,618L-317,248Z" fill="#cfecc5" stroke="#cfecc5" stroke-width="1.51"/><path d="M-355,823L-368,1153L-323,1018Z" fill="#9eabbf" stroke="#9eabbf" stroke-width="1.51"/><path d="M-385,1311L-355,823L-353,618Z" fill="#a0b5c4" stroke="#a0b5c4" stroke-width="1.51"/><path d="M-359,-267L-385,1311L-353,618Z" fill="#acd9cc" stroke="#acd9cc" stroke-width="1.51"/><path d="M-385,1311L-368,1153L-355,823Z" fill="#9da1bd" stroke="#9da1bd" stroke-width="1.51"/></svg>