<svg xmlns="http://www.w3.org/2000/svg" width="1920" height="800"><path d="M494,1077L393,1088L1394,1059Z" fill="#456f92" stroke="#456f92" stroke-width="1.51"/><path d="M267,-314L840,-245L1472,-244Z" fill="#b1ddc8" stroke="#b1ddc8" stroke-width="1.51"/><path d="M1792,1008L1394,1059L1964,992Z" fill="#1f3e8d" stroke="#1f3e8d" stroke-width="1.51"/><path d="M267,-314L1472,-244L2014,-266Z" fill="#a3c8c9" stroke="#a3c8c9" stroke-width="1.51"/><path d="M2014,-266L1915,-95L2211,-248Z" fill="#948da4" stroke="#948da4" stroke-width="1.51"/><path d="M2139,265L1945,374L2240,324Z" fill="#46729d" stroke="#46729d" stroke-width="1.51"/><path d="M2211,-248L1915,-95L2247,38Z" fill="#898797" stroke="#898797" stroke-width="1.51"/><path d="M2139,265L2240,324L2247,38Z" fill="#537491" stroke="#537491" stroke-width="1.51"/><path d="M2240,324L1945,374L2252,659Z" fill="#30679a" stroke="#30679a" stroke-width="1.51"/><path d="M1945,374L1974,654L2252,659Z" fill="#2960a1" stroke="#2960a1" stroke-width="1.51"/><path d="M1921,764L2240,945L2278,804Z" fill="#1e3988" stroke="#1e3988" stroke-width="1.51"/><path d="M2252,659L1974,654L2278,804Z" fill="#1e488e" stroke="#1e488e" stroke-width="1.51"/><path d="M1974,654L1921,764L2278,804Z" fill="#234896" stroke="#234896" stroke-width="1.51"/><path d="M2240,324L2252,659L2278,804Z" fill="#1c538d" stroke="#1c538d" stroke-width="1.51"/><path d="M2247,38L2240,324L2278,804Z" fill="#326790" stroke="#326790" stroke-width="1.51"/><path d="M828,995L494,1077L1394,1059Z" fill="#3a6d99" stroke="#3a6d99" stroke-width="1.51"/><path d="M1921,764L1964,992L2240,945Z" fill="#22358e" stroke="#22358e" stroke-width="1.51"/><path d="M2037,256L2139,265L2247,38Z" fill="#5c7897" stroke="#5c7897" stroke-width="1.51"/><path d="M1854,76L2037,256L2247,38Z" fill="#6e809f" stroke="#6e809f" stroke-width="1.51"/><path d="M1915,-95L1854,76L2247,38Z" fill="#8589a2" stroke="#8589a2" stroke-width="1.51"/><path d="M840,-245L1341,-213L1472,-244Z" fill="#a3c9c5" stroke="#a3c9c5" stroke-width="1.51"/><path d="M1945,374L1862,479L1974,654Z" fill="#346cac" stroke="#346cac" stroke-width="1.51"/><path d="M2037,256L1945,374L2139,265Z" fill="#4d76a3" stroke="#4d76a3" stroke-width="1.51"/><path d="M840,-245L1060,-197L1341,-213Z" fill="#a6d1c4" stroke="#a6d1c4" stroke-width="1.51"/><path d="M1472,-244L1874,-156L2014,-266Z" fill="#9b9db3" stroke="#9b9db3" stroke-width="1.51"/><path d="M1874,-156L1915,-95L2014,-266Z" fill="#9992ab" stroke="#9992ab" stroke-width="1.51"/><path d="M1854,76L1945,374L2037,256Z" fill="#5b7eaa" stroke="#5b7eaa" stroke-width="1.51"/><path d="M1854,76L1730,183L1945,374Z" fill="#5f86ac" stroke="#5f86ac" stroke-width="1.51"/><path d="M1921,764L1792,1008L1964,992Z" fill="#263b97" stroke="#263b97" stroke-width="1.51"/><path d="M1699,533L1921,764L1974,654Z" fill="#295ea9" stroke="#295ea9" stroke-width="1.51"/><path d="M1862,479L1699,533L1974,654Z" fill="#2d6cae" stroke="#2d6cae" stroke-width="1.51"/><path d="M1677,802L1792,1008L1921,764Z" fill="#26489e" stroke="#26489e" stroke-width="1.51"/><path d="M1699,533L1677,802L1921,764Z" fill="#265ea8" stroke="#265ea8" stroke-width="1.51"/><path d="M1730,183L1862,479L1945,374Z" fill="#487eaf" stroke="#487eaf" stroke-width="1.51"/><path d="M1874,-156L1854,76L1915,-95Z" fill="#8f92a9" stroke="#8f92a9" stroke-width="1.51"/><path d="M1730,183L1699,533L1862,479Z" fill="#3c80b2" stroke="#3c80b2" stroke-width="1.51"/><path d="M1551,92L1613,119L1874,-156Z" fill="#869daf" stroke="#869daf" stroke-width="1.51"/><path d="M1472,-244L1551,92L1874,-156Z" fill="#95a5b0" stroke="#95a5b0" stroke-width="1.51"/><path d="M1613,119L1854,76L1874,-156Z" fill="#8797ac" stroke="#8797ac" stroke-width="1.51"/><path d="M1526,424L1699,533L1730,183Z" fill="#3d89b5" stroke="#3d89b5" stroke-width="1.51"/><path d="M1613,119L1730,183L1854,76Z" fill="#7293af" stroke="#7293af" stroke-width="1.51"/><path d="M976,973L828,995L1394,1059Z" fill="#33699f" stroke="#33699f" stroke-width="1.51"/><path d="M1677,802L1605,818L1792,1008Z" fill="#264da0" stroke="#264da0" stroke-width="1.51"/><path d="M1605,818L1475,942L1792,1008Z" fill="#254b9f" stroke="#254b9f" stroke-width="1.51"/><path d="M1475,942L1394,1059L1792,1008Z" fill="#224a95" stroke="#224a95" stroke-width="1.51"/><path d="M1472,-244L1392,-48L1551,92Z" fill="#92b1b5" stroke="#92b1b5" stroke-width="1.51"/><path d="M1447,183L1526,424L1613,119Z" fill="#579ab6" stroke="#579ab6" stroke-width="1.51"/><path d="M1487,691L1605,818L1677,802Z" fill="#235fa9" stroke="#235fa9" stroke-width="1.51"/><path d="M1487,691L1677,802L1699,533Z" fill="#236aae" stroke="#236aae" stroke-width="1.51"/><path d="M1613,119L1526,424L1730,183Z" fill="#5792b3" stroke="#5792b3" stroke-width="1.51"/><path d="M1526,424L1487,691L1699,533Z" fill="#277eb7" stroke="#277eb7" stroke-width="1.51"/><path d="M1425,435L1487,691L1526,424Z" fill="#2a89bb" stroke="#2a89bb" stroke-width="1.51"/><path d="M1551,92L1447,183L1613,119Z" fill="#71a1b4" stroke="#71a1b4" stroke-width="1.51"/><path d="M1487,691L1362,819L1605,818Z" fill="#2466ac" stroke="#2466ac" stroke-width="1.51"/><path d="M1362,819L1475,942L1605,818Z" fill="#275da8" stroke="#275da8" stroke-width="1.51"/><path d="M1425,435L1287,549L1487,691Z" fill="#238abd" stroke="#238abd" stroke-width="1.51"/><path d="M1447,183L1425,435L1526,424Z" fill="#4399bb" stroke="#4399bb" stroke-width="1.51"/><path d="M1392,-48L1447,183L1551,92Z" fill="#7eabb6" stroke="#7eabb6" stroke-width="1.51"/><path d="M1341,-213L1392,-48L1472,-244Z" fill="#9cbaba" stroke="#9cbaba" stroke-width="1.51"/><path d="M1392,-48L1242,40L1447,183Z" fill="#83b5b9" stroke="#83b5b9" stroke-width="1.51"/><path d="M1209,231L1425,435L1447,183Z" fill="#4fa5bd" stroke="#4fa5bd" stroke-width="1.51"/><path d="M1287,549L1362,819L1487,691Z" fill="#227bb6" stroke="#227bb6" stroke-width="1.51"/><path d="M1251,962L976,973L1394,1059Z" fill="#2c62a0" stroke="#2c62a0" stroke-width="1.51"/><path d="M1251,962L1394,1059L1475,942Z" fill="#26589e" stroke="#26589e" stroke-width="1.51"/><path d="M1362,819L1251,962L1475,942Z" fill="#2a60a9" stroke="#2a60a9" stroke-width="1.51"/><path d="M1242,40L1209,231L1447,183Z" fill="#6db3bd" stroke="#6db3bd" stroke-width="1.51"/><path d="M1209,231L1100,370L1287,549Z" fill="#3ca9c2" stroke="#3ca9c2" stroke-width="1.51"/><path d="M1341,-213L1266,-142L1392,-48Z" fill="#9cc0b9" stroke="#9cc0b9" stroke-width="1.51"/><path d="M1209,231L1287,549L1425,435Z" fill="#32a2c2" stroke="#32a2c2" stroke-width="1.51"/><path d="M1287,549L1194,566L1362,819Z" fill="#2188bc" stroke="#2188bc" stroke-width="1.51"/><path d="M1194,566L1144,838L1362,819Z" fill="#277db6" stroke="#277db6" stroke-width="1.51"/><path d="M1266,-142L1242,40L1392,-48Z" fill="#92bfbb" stroke="#92bfbb" stroke-width="1.51"/><path d="M1144,838L1251,962L1362,819Z" fill="#2c6bae" stroke="#2c6bae" stroke-width="1.51"/><path d="M1100,370L1194,566L1287,549Z" fill="#2f9fc2" stroke="#2f9fc2" stroke-width="1.51"/><path d="M1060,-197L1266,-142L1341,-213Z" fill="#a1c8bf" stroke="#a1c8bf" stroke-width="1.51"/><path d="M1058,753L1144,838L1194,566Z" fill="#2d86b8" stroke="#2d86b8" stroke-width="1.51"/><path d="M1051,75L1209,231L1242,40Z" fill="#79bdbd" stroke="#79bdbd" stroke-width="1.51"/><path d="M1060,-197L1051,75L1242,40Z" fill="#94c9bc" stroke="#94c9bc" stroke-width="1.51"/><path d="M1060,-197L1242,40L1266,-142Z" fill="#9bc7bb" stroke="#9bc7bb" stroke-width="1.51"/><path d="M1144,838L976,973L1251,962Z" fill="#366dac" stroke="#366dac" stroke-width="1.51"/><path d="M1100,370L984,460L1194,566Z" fill="#37a7c3" stroke="#37a7c3" stroke-width="1.51"/><path d="M951,209L1100,370L1209,231Z" fill="#58b7c1" stroke="#58b7c1" stroke-width="1.51"/><path d="M1051,75L951,209L1209,231Z" fill="#6fbfbe" stroke="#6fbfbe" stroke-width="1.51"/><path d="M934,517L1058,753L1194,566Z" fill="#2f99c0" stroke="#2f99c0" stroke-width="1.51"/><path d="M984,460L934,517L1194,566Z" fill="#35a5c3" stroke="#35a5c3" stroke-width="1.51"/><path d="M1058,753L976,973L1144,838Z" fill="#3778b0" stroke="#3778b0" stroke-width="1.51"/><path d="M785,65L1051,75L1060,-197Z" fill="#97d1bc" stroke="#97d1bc" stroke-width="1.51"/><path d="M840,-245L785,65L1060,-197Z" fill="#a8d8ba" stroke="#a8d8ba" stroke-width="1.51"/><path d="M951,209L984,460L1100,370Z" fill="#4cb6c2" stroke="#4cb6c2" stroke-width="1.51"/><path d="M934,517L723,581L1058,753Z" fill="#3ca0bf" stroke="#3ca0bf" stroke-width="1.51"/><path d="M723,581L717,842L1058,753Z" fill="#4792b7" stroke="#4792b7" stroke-width="1.51"/><path d="M717,842L976,973L1058,753Z" fill="#417fb1" stroke="#417fb1" stroke-width="1.51"/><path d="M794,110L951,209L1051,75Z" fill="#7dc9be" stroke="#7dc9be" stroke-width="1.51"/><path d="M785,65L794,110L1051,75Z" fill="#8ccfbc" stroke="#8ccfbc" stroke-width="1.51"/><path d="M717,842L828,995L976,973Z" fill="#4b77ab" stroke="#4b77ab" stroke-width="1.51"/><path d="M951,209L719,333L984,460Z" fill="#58bcc2" stroke="#58bcc2" stroke-width="1.51"/><path d="M719,333L934,517L984,460Z" fill="#49b5c3" stroke="#49b5c3" stroke-width="1.51"/><path d="M794,110L719,333L951,209Z" fill="#71c6be" stroke="#71c6be" stroke-width="1.51"/><path d="M267,-314L534,-141L840,-245Z" fill="#c6e8c0" stroke="#c6e8c0" stroke-width="1.51"/><path d="M719,333L723,581L934,517Z" fill="#50b4c1" stroke="#50b4c1" stroke-width="1.51"/><path d="M534,-141L554,5L785,65Z" fill="#adddb7" stroke="#adddb7" stroke-width="1.51"/><path d="M534,-141L785,65L840,-245Z" fill="#b1deb9" stroke="#b1deb9" stroke-width="1.51"/><path d="M719,333L596,502L723,581Z" fill="#5cb8c0" stroke="#5cb8c0" stroke-width="1.51"/><path d="M717,842L494,1077L828,995Z" fill="#5679a3" stroke="#5679a3" stroke-width="1.51"/><path d="M577,779L717,842L723,581Z" fill="#5796b4" stroke="#5796b4" stroke-width="1.51"/><path d="M482,231L719,333L794,110Z" fill="#7ccbbc" stroke="#7ccbbc" stroke-width="1.51"/><path d="M785,65L554,5L794,110Z" fill="#9cd6b9" stroke="#9cd6b9" stroke-width="1.51"/><path d="M554,5L482,231L794,110Z" fill="#98d5b9" stroke="#98d5b9" stroke-width="1.51"/><path d="M577,779L494,1077L717,842Z" fill="#6184aa" stroke="#6184aa" stroke-width="1.51"/><path d="M462,351L596,502L719,333Z" fill="#6ac3bf" stroke="#6ac3bf" stroke-width="1.51"/><path d="M596,502L577,779L723,581Z" fill="#5aa8bb" stroke="#5aa8bb" stroke-width="1.51"/><path d="M482,231L462,351L719,333Z" fill="#7ccabd" stroke="#7ccabd" stroke-width="1.51"/><path d="M315,908L494,1077L577,779Z" fill="#7186a9" stroke="#7186a9" stroke-width="1.51"/><path d="M462,351L285,477L596,502Z" fill="#7bc4bd" stroke="#7bc4bd" stroke-width="1.51"/><path d="M285,477L311,645L596,502Z" fill="#7cbcbc" stroke="#7cbcbc" stroke-width="1.51"/><path d="M311,645L577,779L596,502Z" fill="#6eaab9" stroke="#6eaab9" stroke-width="1.51"/><path d="M325,21L482,231L554,5Z" fill="#afdfb7" stroke="#afdfb7" stroke-width="1.51"/><path d="M311,645L315,908L577,779Z" fill="#779ab0" stroke="#779ab0" stroke-width="1.51"/><path d="M315,908L393,1088L494,1077Z" fill="#6f7f98" stroke="#6f7f98" stroke-width="1.51"/><path d="M534,-141L325,21L554,5Z" fill="#bee5b6" stroke="#bee5b6" stroke-width="1.51"/><path d="M267,-314L325,21L534,-141Z" fill="#d3edb4" stroke="#d3edb4" stroke-width="1.51"/><path d="M267,-314L197,-252L325,21Z" fill="#def2b8" stroke="#def2b8" stroke-width="1.51"/><path d="M325,21L288,204L482,231Z" fill="#abddb8" stroke="#abddb8" stroke-width="1.51"/><path d="M288,204L462,351L482,231Z" fill="#93d3ba" stroke="#93d3ba" stroke-width="1.51"/><path d="M288,204L285,477L462,351Z" fill="#91d1bb" stroke="#91d1bb" stroke-width="1.51"/><path d="M176,447L285,477L288,204Z" fill="#95d2bc" stroke="#95d2bc" stroke-width="1.51"/><path d="M315,908L6,1055L393,1088Z" fill="#7e8599" stroke="#7e8599" stroke-width="1.51"/><path d="M21,-111L187,66L197,-252Z" fill="#dff2b3" stroke="#dff2b3" stroke-width="1.51"/><path d="M227,180L176,447L288,204Z" fill="#a2d9b9" stroke="#a2d9b9" stroke-width="1.51"/><path d="M285,477L237,509L311,645Z" fill="#8ac0bc" stroke="#8ac0bc" stroke-width="1.51"/><path d="M311,645L38,821L315,908Z" fill="#889dae" stroke="#889dae" stroke-width="1.51"/><path d="M38,821L52,922L315,908Z" fill="#8d93a9" stroke="#8d93a9" stroke-width="1.51"/><path d="M52,922L6,1055L315,908Z" fill="#8b8ba2" stroke="#8b8ba2" stroke-width="1.51"/><path d="M197,-252L187,66L325,21Z" fill="#d5efb3" stroke="#d5efb3" stroke-width="1.51"/><path d="M227,180L288,204L325,21Z" fill="#b6e2b6" stroke="#b6e2b6" stroke-width="1.51"/><path d="M187,66L227,180L325,21Z" fill="#c1e6b5" stroke="#c1e6b5" stroke-width="1.51"/><path d="M237,509L14,536L311,645Z" fill="#8ec0bb" stroke="#8ec0bb" stroke-width="1.51"/><path d="M14,536L38,821L311,645Z" fill="#91b2b6" stroke="#91b2b6" stroke-width="1.51"/><path d="M-49,-298L197,-252L267,-314Z" fill="#ebf7c2" stroke="#ebf7c2" stroke-width="1.51"/><path d="M176,447L237,509L285,477Z" fill="#90c8bc" stroke="#90c8bc" stroke-width="1.51"/><path d="M-72,381L176,447L227,180Z" fill="#a4d7ba" stroke="#a4d7ba" stroke-width="1.51"/><path d="M176,447L14,536L237,509Z" fill="#95c8bc" stroke="#95c8bc" stroke-width="1.51"/><path d="M187,66L-158,168L227,180Z" fill="#c1e6b5" stroke="#c1e6b5" stroke-width="1.51"/><path d="M-158,168L-72,381L227,180Z" fill="#b5e0b7" stroke="#b5e0b7" stroke-width="1.51"/><path d="M-49,-298L21,-111L197,-252Z" fill="#ecf8ba" stroke="#ecf8ba" stroke-width="1.51"/><path d="M21,-111L-158,168L187,66Z" fill="#d7efb3" stroke="#d7efb3" stroke-width="1.51"/><path d="M-72,381L14,536L176,447Z" fill="#9ecfbc" stroke="#9ecfbc" stroke-width="1.51"/><path d="M14,536L-120,817L38,821Z" fill="#98acb2" stroke="#98acb2" stroke-width="1.51"/><path d="M-180,1029L6,1055L52,922Z" fill="#908b9b" stroke="#908b9b" stroke-width="1.51"/><path d="M-120,817L-180,1029L52,922Z" fill="#9892a9" stroke="#9892a9" stroke-width="1.51"/><path d="M38,821L-120,817L52,922Z" fill="#969aaa" stroke="#969aaa" stroke-width="1.51"/><path d="M-298,659L-120,817L14,536Z" fill="#9cb6ba" stroke="#9cb6ba" stroke-width="1.51"/><path d="M-207,480L-298,659L14,536Z" fill="#a0c6c2" stroke="#a0c6c2" stroke-width="1.51"/><path d="M-352,-39L-158,168L21,-111Z" fill="#e2f4b9" stroke="#e2f4b9" stroke-width="1.51"/><path d="M-194,-221L-352,-39L21,-111Z" fill="#eff9b9" stroke="#eff9b9" stroke-width="1.51"/><path d="M-49,-298L-194,-221L21,-111Z" fill="#f2fabb" stroke="#f2fabb" stroke-width="1.51"/><path d="M-72,381L-207,480L14,536Z" fill="#a4d0be" stroke="#a4d0be" stroke-width="1.51"/><path d="M-241,857L-180,1029L-120,817Z" fill="#9a96b0" stroke="#9a96b0" stroke-width="1.51"/><path d="M-158,168L-265,248L-72,381Z" fill="#b8e1bf" stroke="#b8e1bf" stroke-width="1.51"/><path d="M-265,248L-207,480L-72,381Z" fill="#addac3" stroke="#addac3" stroke-width="1.51"/><path d="M-298,659L-241,857L-120,817Z" fill="#9ca7b9" stroke="#9ca7b9" stroke-width="1.51"/><path d="M-352,-39L-265,248L-158,168Z" fill="#d1edc1" stroke="#d1edc1" stroke-width="1.51"/><path d="M-265,248L-298,659L-207,480Z" fill="#a7d2c8" stroke="#a7d2c8" stroke-width="1.51"/><path d="M-352,-39L-298,659L-265,248Z" fill="#b8e1c8" stroke="#b8e1c8" stroke-width="1.51"/></svg>